<?xml version="1.0" encoding="utf-8"?>
<!-- Generator: Adobe Illustrator 16.0.0, SVG Export Plug-In . SVG Version: 6.00 Build 0)  -->
<!DOCTYPE svg PUBLIC "-//W3C//DTD SVG 1.1//EN" "http://www.w3.org/Graphics/SVG/1.1/DTD/svg11.dtd">
<svg version="1.1" id="Capa_1" xmlns="http://www.w3.org/2000/svg" xmlns:xlink="http://www.w3.org/1999/xlink" x="0px" y="0px"
	 width="28.35px" height="28.35px" viewBox="0 0 28.35 28.35" enable-background="new 0 0 28.35 28.35" xml:space="preserve">
<g>
	<path fill="#1A3041" d="M19.074,16.996c0,0-0.795,5.719-4.563,9.443c0,0-3.48-2.676-4.514-9.443c0,0-8.618,1.417-8.905,8.656
		c0,0,13.845,4.773,26.599,0C27.691,25.652,28.323,18.727,19.074,16.996z"/>
	<polygon fill="#1A3041" points="14.512,25.477 15.907,23.162 15.396,21.282 13.619,21.282 13.162,23.146 	"/>
	<polygon fill="#1A3041" points="15.818,18.983 13.162,18.983 13.513,20.881 15.414,20.881 	"/>
	<path fill="#1A3041" d="M19.074,13.834c0,0,1.651-1.162,1.686-3.297c0,0,0.034-1.303-0.671-1.162c0,0,1.256-7.052-5.451-6.879
		S8.893,9.375,8.893,9.375S8.016,9.421,8.36,10.992c0.344,1.571,1.599,2.842,1.599,2.842s0.723,3.439,4.213,3.771
		C17.664,17.934,19.074,13.834,19.074,13.834z"/>
	<path fill="#1A3041" d="M7.268,12.107c-0.003-0.034-0.421-3.42,0.142-5.456c1.209-4.379,5.062-5.047,7.249-5.055
		c0.006,0,0.014,0,0.021,0c2.137,0,6.819,1.288,6.96,5.145c0.117,3.247-0.166,6.024-0.369,7.514
		c-0.562,0.185-0.967,0.676-0.967,1.254c0,0.734,0.654,1.331,1.459,1.331c0.806,0,1.459-0.597,1.459-1.331
		c0-0.53-0.34-0.988-0.83-1.203c0.069-0.511,0.146-1.158,0.213-1.916c0.63,0.026,1.449-0.514,1.599-3.371
		c0.108-2.094-0.823-2.479-1.457-2.503c-0.137-1.953-1.248-3.561-3.227-4.658c-1.71-0.947-3.67-1.283-4.841-1.283
		c-0.008,0-0.016,0-0.024,0c-1.164,0.005-2.892,0.184-4.513,1.009C8.224,2.563,6.94,4.183,6.326,6.402
		c-0.011,0.039-0.021,0.08-0.032,0.12C5.666,6.573,4.807,7.008,4.914,9.02C5.162,13.781,7.268,12.107,7.268,12.107z"/>
</g>
</svg>
