<?xml version="1.0" encoding="utf-8"?>
<!-- Generator: Adobe Illustrator 16.0.0, SVG Export Plug-In . SVG Version: 6.00 Build 0)  -->
<!DOCTYPE svg PUBLIC "-//W3C//DTD SVG 1.1//EN" "http://www.w3.org/Graphics/SVG/1.1/DTD/svg11.dtd">
<svg version="1.1" id="Capa_1" xmlns="http://www.w3.org/2000/svg" xmlns:xlink="http://www.w3.org/1999/xlink" x="0px" y="0px"
	 width="141.73px" height="56.69px" viewBox="0 0 141.73 56.69" enable-background="new 0 0 141.73 56.69" xml:space="preserve">
<g>
	<g>
		<path fill="#1A3041" d="M8.321,33.904V16.511h3.802v17.394H8.321z"/>
		<path fill="#1A3041" d="M21.794,33.904l-3.999-8.419v8.419h-3.664V16.511h3.585l3.999,8.472v-8.472h3.663v17.394H21.794z"/>
		<path fill="#1A3041" d="M35.032,33.904h-3.093l-4.728-17.394h3.86l2.423,8.921l2.422-8.921h3.841L35.032,33.904z"/>
		<path fill="#1A3041" d="M40.548,33.904V16.511H50.85v4.355h-6.875v2.137h6.5v4.382h-6.5v2.137h6.875v4.382H40.548z"/>
		<path fill="#1A3041" d="M57.37,34.458c-0.854,0-1.698-0.141-2.532-0.422s-1.631-0.668-2.393-1.161
			c-0.013,0-0.033-0.009-0.06-0.027c-0.026-0.016-0.059-0.033-0.098-0.052c-0.066-0.052-0.115-0.11-0.148-0.171
			c-0.033-0.063-0.049-0.11-0.049-0.146c0-0.019,0.072-0.207,0.217-0.567c0.144-0.361,0.315-0.77,0.512-1.229
			c0.184-0.404,0.355-0.795,0.513-1.174c0.157-0.378,0.289-0.681,0.394-0.911c0.145,0.088,0.252,0.155,0.325,0.198
			c0.072,0.044,0.141,0.093,0.207,0.146c0.578,0.386,1.155,0.686,1.733,0.897c0.578,0.211,1.182,0.317,1.812,0.317
			c0.092,0,0.181,0,0.266,0c0.085,0,0.174-0.01,0.266-0.028c0.197,0,0.375-0.033,0.532-0.105c0.157-0.086,0.292-0.211,0.404-0.368
			c0.111-0.159,0.167-0.396,0.167-0.712c0-0.229-0.066-0.41-0.197-0.541c-0.132-0.133-0.27-0.242-0.414-0.331
			c-0.091-0.052-0.177-0.097-0.256-0.132c-0.224-0.123-0.45-0.216-0.679-0.277c-0.23-0.062-0.463-0.127-0.699-0.198
			c-0.315-0.088-0.624-0.181-0.926-0.277c-0.302-0.097-0.598-0.199-0.886-0.303c-0.302-0.124-0.584-0.26-0.847-0.41
			c-0.263-0.149-0.512-0.321-0.749-0.515c-0.486-0.405-0.874-0.937-1.162-1.597c-0.29-0.66-0.434-1.535-0.434-2.625
			c0-0.774,0.125-1.522,0.374-2.244c0.25-0.704,0.568-1.28,0.956-1.729c0.387-0.448,0.817-0.804,1.29-1.068
			c0.473-0.264,0.965-0.444,1.478-0.541c0.512-0.097,1.024-0.145,1.536-0.145c0.84,0,1.678,0.141,2.512,0.422
			c0.834,0.282,1.651,0.756,2.453,1.425c-0.302,0.687-0.584,1.342-0.847,1.967c-0.263,0.625-0.545,1.279-0.847,1.966
			c-0.67-0.457-1.297-0.813-1.881-1.069c-0.584-0.255-1.211-0.382-1.882-0.382c-0.131,0-0.279,0.004-0.443,0.013
			c-0.165,0.009-0.315,0.049-0.453,0.119c-0.138,0.07-0.256,0.176-0.354,0.316c-0.099,0.141-0.147,0.343-0.147,0.607
			c0,0.159,0.032,0.308,0.098,0.449c0.052,0.141,0.167,0.26,0.345,0.356c0.177,0.097,0.417,0.198,0.719,0.304
			c0.289,0.105,0.607,0.207,0.955,0.303c0.348,0.097,0.706,0.215,1.074,0.356c0.368,0.123,0.742,0.269,1.123,0.436
			c0.38,0.167,0.738,0.379,1.073,0.633c0.335,0.255,0.637,0.554,0.906,0.897c0.269,0.344,0.483,0.752,0.64,1.228
			c0.118,0.352,0.2,0.73,0.246,1.135c0.046,0.405,0.069,0.801,0.069,1.188c0,1.162-0.174,2.112-0.522,2.851
			c-0.348,0.739-0.801,1.328-1.359,1.769c-0.558,0.439-1.182,0.743-1.871,0.91C58.739,34.375,58.053,34.458,57.37,34.458z"/>
		<path fill="#1A3041" d="M74.548,21.024h-3.35v12.88h-3.704v-12.88h-3.349l-0.315-0.422v-4.091h11.03v4.091L74.548,21.024z"/>
	</g>
	<g>
		<path fill="#6CA753" d="M23.317,36.017h3.279v5.934h4.209v-5.934h3.278v15.853h-3.278v-6.024h-4.209v6.024h-3.279V36.017z"/>
		<path fill="#6CA753" d="M36.247,36.017h3.295v15.853h-3.295V36.017z"/>
		<path fill="#6CA753" d="M41.706,36.017h4.563c1.06,0,2.003,0.193,2.831,0.578c0.828,0.385,1.527,0.926,2.096,1.619
			c0.569,0.694,1.003,1.521,1.302,2.48c0.298,0.957,0.448,2.012,0.448,3.158v0.045c0,1.147-0.152,2.209-0.456,3.182
			c-0.305,0.975-0.744,1.817-1.319,2.525c-0.575,0.71-1.282,1.266-2.121,1.665s-1.789,0.6-2.848,0.6h-4.496V36.017z M46.325,47.974
			c0.983,0,1.775-0.347,2.375-1.041c0.6-0.693,0.898-1.683,0.898-2.967V43.92c0-1.268-0.299-2.253-0.898-2.955
			s-1.392-1.053-2.375-1.053h-1.34v8.062H46.325z"/>
		<path fill="#6CA753" d="M58.726,35.903h3.161l5.037,15.966h-3.515l-0.862-2.831h-4.563l-0.845,2.831h-3.448L58.726,35.903z
			 M61.599,45.642l-1.318-4.507l-1.335,4.507H61.599z"/>
		<path fill="#6CA753" d="M68.072,36.017h3.28V48.02h5.729v3.85h-9.009V36.017z"/>
		<path fill="#6CA753" d="M84.518,52.187c-0.924,0-1.777-0.199-2.561-0.601c-0.783-0.399-1.463-0.961-2.036-1.688
			c-0.575-0.725-1.026-1.589-1.353-2.592c-0.328-1.004-0.49-2.109-0.49-3.318v-0.045c0-1.147,0.16-2.223,0.479-3.227
			c0.32-1.004,0.76-1.88,1.32-2.628c0.561-0.747,1.232-1.332,2.015-1.755c0.781-0.422,1.628-0.634,2.542-0.634
			c1.047,0,1.951,0.203,2.713,0.611c0.76,0.407,1.455,0.974,2.087,1.699l-1.927,3.103c-0.428-0.483-0.865-0.854-1.311-1.109
			c-0.445-0.258-0.96-0.387-1.546-0.387c-0.429,0-0.826,0.114-1.192,0.341c-0.365,0.227-0.684,0.536-0.954,0.928
			c-0.271,0.393-0.484,0.853-0.643,1.382c-0.158,0.528-0.236,1.095-0.236,1.698v0.046c0,0.634,0.079,1.223,0.237,1.766
			c0.158,0.544,0.381,1.008,0.67,1.393c0.289,0.386,0.627,0.688,1.018,0.906s0.822,0.329,1.297,0.329c0.77,0,1.402-0.22,1.899-0.658
			v-1.925h-2.333v-3.215h5.442v7.133c-0.63,0.695-1.374,1.277-2.23,1.744C86.568,51.953,85.6,52.187,84.518,52.187z"/>
		<path fill="#6CA753" d="M97.43,52.187c-0.912,0-1.758-0.215-2.534-0.646c-0.778-0.431-1.448-1.015-2.012-1.755
			c-0.563-0.739-1.006-1.607-1.326-2.605c-0.321-0.996-0.481-2.06-0.481-3.192v-0.045c0-1.133,0.16-2.2,0.481-3.205
			c0.32-1.003,0.77-1.88,1.343-2.627c0.575-0.746,1.252-1.336,2.028-1.766c0.777-0.431,1.623-0.646,2.535-0.646
			c0.913,0,1.758,0.215,2.535,0.646c0.778,0.43,1.448,1.015,2.012,1.755s1.006,1.608,1.327,2.604s0.48,2.061,0.48,3.192v0.046
			c0,1.132-0.159,2.2-0.48,3.205c-0.321,1.004-0.77,1.879-1.344,2.626c-0.575,0.748-1.251,1.336-2.028,1.767
			S98.343,52.187,97.43,52.187z M97.455,48.224c0.453,0,0.864-0.114,1.238-0.341c0.373-0.226,0.688-0.532,0.949-0.916
			c0.26-0.386,0.463-0.834,0.61-1.348c0.146-0.514,0.22-1.057,0.22-1.631v-0.045c0-0.574-0.073-1.117-0.22-1.63
			c-0.147-0.515-0.356-0.967-0.627-1.36c-0.271-0.392-0.594-0.704-0.967-0.939c-0.373-0.233-0.786-0.351-1.237-0.351
			s-0.86,0.113-1.229,0.341c-0.366,0.226-0.684,0.531-0.949,0.916s-0.47,0.835-0.611,1.348c-0.141,0.514-0.21,1.057-0.21,1.63v0.046
			c0,0.573,0.072,1.117,0.22,1.631c0.146,0.514,0.353,0.966,0.619,1.358c0.265,0.393,0.584,0.706,0.957,0.939
			C96.592,48.107,97.004,48.224,97.455,48.224z"/>
	</g>
	<g>
		<path fill="#94221D" d="M133.234,27.662c-0.288-0.746-0.973-1.039-1.529-0.652c-11.198,7.753-18.225,10.632-20.885,8.558
			c-1.523-1.189-1.615-4.305-1.712-7.604c-0.12-4.069-0.269-9.134-3.972-10.309c-2.637-0.836-5.031,0.146-7.094,1.893
			c0.569-1.065,1.062-1.988,1.413-2.693c0.482-0.968,1.143-2.295,0.293-3.284c-0.825-0.961-1.712,0.042-2.298,0.706
			c-0.531,0.601-1.312,1.563-2.388,2.938c-8.036,10.279-14.79,12.754-16.313,11.253c-0.024-0.024-0.039-0.04-0.047-0.159
			c-0.093-1.396,1.709-4.879,3.43-7.306c0.416-0.586,0.418-1.505,0.004-2.093c-0.416-0.587-1.101-0.637-1.56-0.114
			c-8.22,9.356-14.603,9.579-14.722,9.582c-0.625,0.002-1.132,0.682-1.132,1.521c0,0.838,0.508,1.52,1.135,1.52
			c0.23,0,4.614-0.072,10.86-5.129c-0.213,0.801-0.324,1.58-0.277,2.286c0.064,0.974,0.396,1.783,0.965,2.343
			c2.435,2.4,8.56,0.377,15.855-7.525c-1.161,2.338-2.199,4.664-2.688,6.448c-0.38,1.386-0.707,2.581,0.245,3.225
			c0.942,0.636,1.454-0.405,1.997-1.507c1.548-3.142,6.256-12.704,11.797-10.945c1.827,0.58,2.091,2.829,2.228,7.469
			c0.11,3.788,0.236,8.083,2.839,10.112c0.886,0.692,2.001,1.044,3.373,1.044c4.068,0,10.393-3.089,19.694-9.528
			C133.304,29.326,133.521,28.408,133.234,27.662z"/>
		<path fill="#94221D" d="M83.301,18.639c0.323,0,0.645-0.184,0.869-0.542c0.094-0.148,2.291-3.688,4.022-10.021
			c0.216-0.788-0.087-1.662-0.675-1.951c-0.588-0.289-1.24,0.116-1.456,0.905c-1.581,5.776-3.598,9.06-3.63,9.11
			c-0.401,0.643-0.34,1.601,0.14,2.141C82.783,18.521,83.043,18.639,83.301,18.639z"/>
	</g>
</g>
</svg>
