<?xml version="1.0" encoding="utf-8"?>
<!-- Generator: Adobe Illustrator 16.0.0, SVG Export Plug-In . SVG Version: 6.00 Build 0)  -->
<!DOCTYPE svg PUBLIC "-//W3C//DTD SVG 1.1//EN" "http://www.w3.org/Graphics/SVG/1.1/DTD/svg11.dtd">
<svg version="1.1" id="Capa_1" xmlns="http://www.w3.org/2000/svg" xmlns:xlink="http://www.w3.org/1999/xlink" x="0px" y="0px"
	 width="28.35px" height="28.35px" viewBox="0 0 28.35 28.35" enable-background="new 0 0 28.35 28.35" xml:space="preserve">
<g>
	<circle fill="#1D3141" cx="14.175" cy="13.98" r="13.607"/>
	<path fill="#FDFEFD" d="M6.706,7.28c0,0,2.556,3.522,7.042,3.751c0,0-0.394-2.84,1.989-3.922c2.5-1.135,4.203,0.966,4.203,0.966
		s1.252-0.114,2.102-1.081c0,0,0.398,0.91-0.909,1.819c0,0,0.853,0.111,1.478-0.399c0,0,0.113,1.252-1.648,1.819
		c0,0,0.513,14.712-15.224,9.088c0,0,3.693,0.286,4.829-1.531c0,0-2.27,0.112-3.182-2.556c0,0,0.854,0.338,1.421-0.171
		c0,0-2.045,0-2.557-3.296c0,0,0.739,0.398,1.364,0.284C7.614,12.053,5.454,10.802,6.706,7.28z"/>
</g>
</svg>
