<?xml version="1.0" encoding="utf-8"?>
<!-- Generator: Adobe Illustrator 16.0.0, SVG Export Plug-In . SVG Version: 6.00 Build 0)  -->
<!DOCTYPE svg PUBLIC "-//W3C//DTD SVG 1.1//EN" "http://www.w3.org/Graphics/SVG/1.1/DTD/svg11.dtd">
<svg version="1.1" id="Capa_1" xmlns="http://www.w3.org/2000/svg" xmlns:xlink="http://www.w3.org/1999/xlink" x="0px" y="0px"
	 width="28.35px" height="28.35px" viewBox="0 0 28.35 28.35" enable-background="new 0 0 28.35 28.35" xml:space="preserve">
<g>
	<g>
		<circle fill="#1D3141" cx="14.175" cy="14.174" r="13.824"/>
	</g>
	<path fill="#FDFEFD" d="M14.175,4.671c-5.241,0-9.503,4.263-9.503,9.503c0,5.239,4.263,9.502,9.503,9.502
		c5.239,0,9.501-4.264,9.501-9.502C23.677,8.934,19.414,4.671,14.175,4.671z M5.776,14.714h2.606
		c0.041,1.027,0.198,1.961,0.41,2.789H6.444C6.069,16.639,5.838,15.699,5.776,14.714z M14.716,9.762V5.775
		c0.389,0.024,0.772,0.072,1.146,0.149c0.943,1.259,1.666,2.539,2.165,3.837H14.716z M18.391,10.846
		c0.263,0.92,0.415,1.851,0.457,2.787h-4.132v-2.787H18.391z M13.633,9.762h-3.358c0.496-1.293,1.215-2.568,2.155-3.825
		c0.393-0.082,0.793-0.138,1.203-0.162V9.762z M13.633,10.846v2.787H9.455c0.041-0.936,0.191-1.866,0.456-2.787H13.633z
		 M8.386,13.632H5.776c0.062-0.985,0.293-1.922,0.668-2.787h2.361C8.551,11.82,8.423,12.752,8.386,13.632z M9.457,14.714h4.177
		v2.789H9.912C9.652,16.568,9.501,15.639,9.457,14.714z M13.633,18.588v3.985c-0.415-0.027-0.824-0.082-1.222-0.166
		c-0.338-0.412-1.393-1.793-2.148-3.819H13.633z M14.716,18.588h3.322c-0.761,2.044-1.835,3.438-2.159,3.83
		c-0.378,0.08-0.768,0.13-1.163,0.155V18.588z M14.716,17.503v-2.789h4.129c-0.045,0.925-0.194,1.854-0.454,2.789H14.716z
		 M19.919,14.714h2.655c-0.063,0.985-0.294,1.925-0.668,2.789h-2.396C19.721,16.675,19.877,15.741,19.919,14.714z M19.917,13.632
		c-0.038-0.88-0.167-1.813-0.42-2.787h2.409c0.374,0.864,0.605,1.802,0.668,2.787H19.917z M21.342,9.762h-2.175
		c-0.37-1.064-0.896-2.167-1.614-3.297C19.126,7.156,20.447,8.312,21.342,9.762z M10.73,6.496c-0.709,1.12-1.229,2.212-1.596,3.266
		H7.009C7.89,8.334,9.188,7.19,10.73,6.496z M7.009,18.588h2.104c0.457,1.341,1.047,2.439,1.551,3.235
		C9.15,21.126,7.878,19.993,7.009,18.588z M17.618,21.854c0.51-0.799,1.106-1.91,1.57-3.267h2.153
		C20.457,20.014,19.161,21.158,17.618,21.854z"/>
</g>
</svg>
