<?xml version="1.0" encoding="utf-8"?>
<!-- Generator: Adobe Illustrator 16.0.0, SVG Export Plug-In . SVG Version: 6.00 Build 0)  -->
<!DOCTYPE svg PUBLIC "-//W3C//DTD SVG 1.1//EN" "http://www.w3.org/Graphics/SVG/1.1/DTD/svg11.dtd">
<svg version="1.1" id="Capa_1" xmlns="http://www.w3.org/2000/svg" xmlns:xlink="http://www.w3.org/1999/xlink" x="0px" y="0px"
	 width="141.73px" height="141.73px" viewBox="0 0 141.73 141.73" enable-background="new 0 0 141.73 141.73" xml:space="preserve">
<g>
	<g>
		<defs>
			<path id="SVGID_1_" d="M128.901,80.193c0,31.913-27.644,57.781-61.746,57.781c-34.097,0-61.741-25.868-61.741-57.781
				c0-31.911,27.644-57.776,61.741-57.776C101.258,22.417,128.901,48.283,128.901,80.193z"/>
		</defs>
		<clipPath id="SVGID_2_">
			<use xlink:href="#SVGID_1_"  overflow="visible"/>
		</clipPath>
		<g clip-path="url(#SVGID_2_)">
			<path fill="#649D67" d="M55.407,80.574L55.407,80.574l12.418-11.623l0.003,0.002l51.05-47.771H12.824
				c-4.012,0-7.266,3.044-7.266,6.799v99.244L55.407,80.574z"/>
			<polygon fill="#627AB5" points="17.588,139.208 118.065,139.208 67.828,92.194 			"/>
			<polygon fill="#C1C1C0" points="132.407,129.392 132.407,31.764 80.243,80.574 			"/>
			
				<rect x="53.112" y="74.763" transform="matrix(0.7301 -0.6834 0.6834 0.7301 -34.4584 62.2849)" fill="#F0F0EF" width="17.009" height="0"/>
			<path fill="#F0F0EF" d="M67.828,92.194l50.237,47.014h7.071c4.017,0,7.271-3.047,7.271-6.802v-3.015L80.243,80.574L67.828,92.194
				z"/>
			<path fill="#EAD462" d="M55.407,80.574L5.558,127.226v5.181c0,3.755,3.253,6.802,7.266,6.802h4.764l50.24-47.014l12.415-11.62
				l52.164-48.811v-3.782c0-3.755-3.254-6.799-7.271-6.799h-6.259l-51.05,47.771L55.407,80.574z"/>
			<path fill="#EFEEEE" d="M25.278,64.67c1.122,1.069,2.474,1.912,4.052,2.517c1.582,0.609,3.336,0.912,5.274,0.912
				c1.082,0,2.117-0.097,3.11-0.282c0.993-0.188,1.917-0.447,2.779-0.777c0.859-0.333,1.661-0.716,2.409-1.161
				c0.74-0.438,1.416-0.906,2.031-1.386v-9.736H34.389v3.542h6.335v4.361c-0.752,0.534-1.639,0.958-2.665,1.277
				c-1.021,0.327-2.124,0.488-3.299,0.488c-1.273,0-2.42-0.211-3.441-0.632c-1.025-0.42-1.909-0.996-2.646-1.722
				c-0.741-0.734-1.316-1.609-1.715-2.625s-0.601-2.12-0.601-3.318v-0.066c0-1.104,0.212-2.157,0.622-3.149
				c0.41-0.997,0.978-1.865,1.697-2.607c0.719-0.738,1.571-1.33,2.549-1.774c0.979-0.44,2.031-0.66,3.164-0.66
				c0.78,0,1.492,0.061,2.143,0.182c0.647,0.122,1.24,0.29,1.784,0.491c0.547,0.213,1.064,0.472,1.557,0.781
				c0.499,0.31,0.978,0.653,1.453,1.029l2.758-3.081c-0.634-0.509-1.292-0.957-1.959-1.342c-0.677-0.388-1.384-0.71-2.147-0.977
				c-0.751-0.265-1.572-0.467-2.456-0.612c-0.883-0.141-1.869-0.216-2.952-0.216c-1.865,0-3.58,0.324-5.148,0.959
				c-1.567,0.643-2.923,1.508-4.066,2.604c-1.137,1.09-2.021,2.362-2.653,3.819c-0.629,1.457-0.939,2.994-0.939,4.603v0.067
				c0,1.703,0.306,3.274,0.917,4.717C23.29,62.342,24.161,63.604,25.278,64.67z"/>
		</g>
	</g>
	<g>
		<path fill="#821A1E" d="M110.085,19.55c-6.612,0-11.974,5.013-11.974,11.2c0,6.188,5.361,11.203,11.974,11.203
			c6.607,0,11.971-5.015,11.971-11.203C122.056,24.563,116.692,19.55,110.085,19.55z"/>
		<path fill="#B0443F" d="M110.085,3.765c-32.357-0.573-27.79,27.938-27.79,27.938c0.45,2.799,1.893,7.176,3.204,9.72l22.198,43.088
			c1.316,2.547,3.479,2.557,4.81,0.017l22.637-43.118c1.333-2.537,2.768-6.911,3.185-9.71C138.328,31.7,142.438,4.34,110.085,3.765z
			 M110.092,46.452c-9.795,0-17.726-7.31-17.726-16.327c0-9.014,7.931-16.324,17.726-16.324c9.789,0,17.728,7.311,17.728,16.324
			C127.819,39.142,119.881,46.452,110.092,46.452z"/>
		<path fill="#B0443F" d="M110.092,13.801c-9.795,0-17.726,7.311-17.726,16.324c0,9.017,7.931,16.327,17.726,16.327
			c9.789,0,17.728-7.31,17.728-16.327C127.819,21.111,119.881,13.801,110.092,13.801z M110.085,41.953
			c-6.612,0-11.974-5.015-11.974-11.203c0-6.187,5.361-11.2,11.974-11.2c6.607,0,11.971,5.013,11.971,11.2
			C122.056,36.938,116.692,41.953,110.085,41.953z"/>
	</g>
</g>
</svg>
