<?xml version="1.0" encoding="utf-8"?>
<!-- Generator: Adobe Illustrator 16.0.0, SVG Export Plug-In . SVG Version: 6.00 Build 0)  -->
<!DOCTYPE svg PUBLIC "-//W3C//DTD SVG 1.1//EN" "http://www.w3.org/Graphics/SVG/1.1/DTD/svg11.dtd">
<svg version="1.1" id="Capa_1" xmlns="http://www.w3.org/2000/svg" xmlns:xlink="http://www.w3.org/1999/xlink" x="0px" y="0px"
	 width="28.35px" height="28.35px" viewBox="0 0 28.35 28.35" enable-background="new 0 0 28.35 28.35" xml:space="preserve">
<g>
	<defs>
		<path id="SVGID_1_" d="M6.539,25.881l0.544,0.362v-1.448L6.539,25.881z M21.175,26.243l0.638-0.362l-0.638-1.086V26.243z
			 M13.447,28.154h0.729v-6.18h-0.729V28.154z M14.176,28.154h0.727v-6.18h-0.727V28.154z M7.083,24.795v1.448l0.732,0.369
			l3.089-5.364l-1.273-0.727L7.083,24.795z M17.447,21.248l3.09,5.364l0.638-0.369v-1.448l-2.454-4.273L17.447,21.248z
			 M7.083,19.068l0.633-0.364l-0.633-1.091V19.068z M20.537,18.704l0.638,0.364v-1.455L20.537,18.704z M1.631,20.521l0.821,1.273
			l4.631-2.727v-1.455l-0.088-0.178L1.631,20.521z M21.175,17.613v1.455l4.725,2.727l0.729-1.273l-5.269-3.086L21.175,17.613z
			 M0.178,14.887h6.182v-1.455H0.178V14.887z M21.993,14.887h6.179v-1.455h-6.179V14.887z M7.083,10.613l0.633-1.091L7.083,9.249
			V10.613z M20.537,9.521l0.638,1.091V9.249L20.537,9.521z M8.176,14.159c0,3.277,2.728,5.91,6,5.91v-1.453
			c-2.458,0-4.456-2.004-4.456-4.457c0-2.544,1.998-4.542,4.456-4.542V8.159C10.904,8.159,8.176,10.796,8.176,14.159 M14.176,9.616
			c2.457,0,4.456,1.998,4.456,4.542c0,2.453-1.999,4.457-4.456,4.457v1.453c3.271,0,5.907-2.633,5.907-5.91c0-3.362-2.636-6-5.907-6
			V9.616z M1.631,7.799l5.365,3.087l0.088-0.274V9.249L2.452,6.521L1.631,7.799z M21.175,9.249v1.364l0.186,0.274l5.269-3.087
			l-0.729-1.278L21.175,9.249z M6.539,2.433l0.544,1V2.065L6.539,2.433z M21.175,3.432l0.638-1l-0.638-0.368V3.432z M7.083,2.065
			v1.367l2.548,4.273l1.273-0.73L7.815,1.613L7.083,2.065z M17.447,6.975l1.273,0.73l2.454-4.273V2.065l-0.638-0.452L17.447,6.975z
			 M13.447,6.25h0.729V0.16h-0.729V6.25z M14.176,6.25h0.727V0.16h-0.727V6.25z"/>
	</defs>
	<use xlink:href="#SVGID_1_"  overflow="visible" fill="#6CA753"/>
	<clipPath id="SVGID_2_">
		<use xlink:href="#SVGID_1_"  overflow="visible"/>
	</clipPath>
	<rect x="0.178" y="0.16" clip-path="url(#SVGID_2_)" fill="#6CA753" width="27.994" height="27.994"/>
</g>
</svg>
