<?xml version="1.0" encoding="utf-8"?>
<!-- Generator: Adobe Illustrator 16.0.0, SVG Export Plug-In . SVG Version: 6.00 Build 0)  -->
<!DOCTYPE svg PUBLIC "-//W3C//DTD SVG 1.1//EN" "http://www.w3.org/Graphics/SVG/1.1/DTD/svg11.dtd">
<svg version="1.1" id="Capa_1" xmlns="http://www.w3.org/2000/svg" xmlns:xlink="http://www.w3.org/1999/xlink" x="0px" y="0px"
	 width="28.35px" height="28.35px" viewBox="0 0 28.35 28.35" enable-background="new 0 0 28.35 28.35" xml:space="preserve">
<g>
	<path fill="#6CA753" d="M12.111,16.475c0-0.959,0.656-1.618,1.574-1.618c0.957,0,1.583,0.659,1.598,1.618
		c0,0.928-0.623,1.623-1.598,1.623C12.753,18.094,12.111,17.408,12.111,16.475L12.111,16.475z M12.579,14.006l-0.019-0.465
		c-0.067-0.9,0.247-1.829,1.038-2.757c0.564-0.704,1.034-1.28,1.034-1.873c0-0.612-0.404-1.045-1.3-1.063
		c-0.578,0-1.304,0.212-1.75,0.536l-0.607-1.948c0.66-0.371,1.698-0.719,2.963-0.719c2.343,0,3.434,1.301,3.434,2.776
		c0,1.343-0.869,2.225-1.543,2.979c-0.637,0.726-0.917,1.408-0.894,2.209v0.324H12.579z M20.307,27.119l-0.791-1.361
		c-0.783-1.365-1.49-2.611-2.002-3.537H2.647c-1.2,0-2.175-0.967-2.175-2.172V3.405c0-1.196,0.975-2.175,2.175-2.175h23.044
		c1.204,0,2.186,0.979,2.186,2.181v16.637c0,1.205-0.981,2.172-2.186,2.172h-2.619c-0.924,1.645-2.052,3.621-2.052,3.621
		L20.307,27.119z M2.647,2.91L2.647,2.91c-0.287,0-0.507,0.224-0.507,0.501v16.637c0,0.273,0.221,0.5,0.507,0.5h15.846l0.239,0.432
		c0.465,0.818,1.06,1.861,1.559,2.744c0.465-0.803,1.057-1.863,1.567-2.758l0.241-0.418h3.592c0.274,0,0.514-0.227,0.514-0.5V3.405
		c0-0.271-0.239-0.495-0.514-0.495H2.647z"/>
</g>
</svg>
