<?xml version="1.0" encoding="utf-8"?>
<!-- Generator: Adobe Illustrator 16.0.0, SVG Export Plug-In . SVG Version: 6.00 Build 0)  -->
<!DOCTYPE svg PUBLIC "-//W3C//DTD SVG 1.1//EN" "http://www.w3.org/Graphics/SVG/1.1/DTD/svg11.dtd">
<svg version="1.1" id="Capa_1" xmlns="http://www.w3.org/2000/svg" xmlns:xlink="http://www.w3.org/1999/xlink" x="0px" y="0px"
	 width="28.35px" height="28.35px" viewBox="0 0 28.35 28.35" enable-background="new 0 0 28.35 28.35" xml:space="preserve">
<g>
	<path fill="#6CA753" d="M4.787,1.782C4.748,1.153,5.272,0.54,5.915,0.544c4.867-0.007,9.73,0,14.596-0.005
		c0.627-0.067,1.219,0.485,1.241,1.112c0.008,0.908-0.003,1.817,0.002,2.728c0.839,0.009,1.675-0.011,2.513,0.009
		c0.615,0.012,1.13,0.568,1.13,1.178c0.011,6.968,0,13.936,0.009,20.908c0.067,0.693-0.53,1.371-1.243,1.333
		c-4.787,0.014-9.578,0.004-14.368,0.006c-0.581,0.04-1.191-0.313-1.321-0.902c-0.076-0.509-0.026-1.028-0.033-1.539
		c-0.847-0.008-1.688,0.01-2.531-0.006c-0.603-0.002-1.13-0.565-1.119-1.163C4.782,16.728,4.79,9.256,4.787,1.782z M7.195,22.966
		c0.411,0,0.827,0,1.243,0c0.002-3.799,0-7.604,0.002-11.402c-0.014-0.288,0.086-0.579,0.283-0.788
		c1.937-1.98,3.947-3.885,5.889-5.86c0.274-0.298,0.644-0.553,1.068-0.533c1.22-0.007,2.446,0,3.669-0.003c0-0.476,0-0.957,0-1.429
		c-4.053,0-8.104,0-12.154,0C7.195,9.619,7.195,16.293,7.195,22.966z M16.896,6.786c-0.005,1.602,0.019,3.206-0.009,4.805
		c0.009,0.642-0.549,1.222-1.19,1.211c-1.617,0.007-3.234,0-4.854,0.004c0,4.188,0,8.377,0,12.564c4.038,0,8.075,0,12.118,0
		c0-6.196,0-12.391,0-18.585C20.94,6.786,18.918,6.786,16.896,6.786z M12.555,10.399c0.63,0,1.268,0,1.901,0c0-0.634,0-1.27,0-1.902
		C13.823,9.127,13.185,9.766,12.555,10.399z"/>
</g>
</svg>
