<?xml version="1.0" encoding="utf-8"?>
<!-- Generator: Adobe Illustrator 16.0.0, SVG Export Plug-In . SVG Version: 6.00 Build 0)  -->
<!DOCTYPE svg PUBLIC "-//W3C//DTD SVG 1.1//EN" "http://www.w3.org/Graphics/SVG/1.1/DTD/svg11.dtd">
<svg version="1.1" id="Capa_1" xmlns="http://www.w3.org/2000/svg" xmlns:xlink="http://www.w3.org/1999/xlink" x="0px" y="0px"
	 width="28.35px" height="28.35px" viewBox="0 0 28.35 28.35" enable-background="new 0 0 28.35 28.35" xml:space="preserve">
<g>
	<circle fill="#1D3141" cx="14.175" cy="14.175" r="13.843"/>
	<g>
		<rect x="6.889" y="11.345" fill="#FDFEFD" width="3.233" height="9.707"/>
		<path fill="#FDFEFD" d="M18.06,11.079c-1.6,0-2.533,0.928-2.939,1.474v-1.208h-3.237v9.707h3.237v-6.333
			c0.337-0.458,0.884-0.958,1.649-0.958c1.808,0,1.666,1.616,1.666,1.616v0.822v4.853h3.236v-4.853v-1.838
			C21.672,14.361,21.801,11.079,18.06,11.079z"/>
		<path fill="#FDFEFD" d="M8.539,6.706c-1.028,0-1.861,0.744-1.861,1.663c0,0.918,0.833,1.663,1.861,1.663
			c1.025,0,1.857-0.744,1.857-1.663C10.396,7.449,9.564,6.706,8.539,6.706z"/>
	</g>
</g>
</svg>
